<svg width="24" height="24" viewBox="0 0 24 24" fill="none" xmlns="http://www.w3.org/2000/svg">
<path d="M17.6253 1.50001H6.35575C5.71684 1.50129 5.08443 1.6284 4.49464 1.87408C3.90485 2.11977 3.36923 2.47921 2.91836 2.9319C2.46748 3.38459 2.11018 3.92165 1.86687 4.51242C1.62355 5.10319 1.49897 5.7361 1.50025 6.37501V6.39451C1.50153 7.03342 1.62864 7.66583 1.87433 8.25562C2.12001 8.84541 2.47946 9.38103 2.93214 9.83191C3.38483 10.2828 3.92189 10.6401 4.51266 10.8834C5.10343 11.1267 5.73634 11.2513 6.37525 11.25H17.6448C18.2837 11.2487 18.9161 11.1216 19.5059 10.8759C20.0957 10.6303 20.6313 10.2708 21.0822 9.81812C21.533 9.36543 21.8903 8.82837 22.1336 8.2376C22.377 7.64683 22.5015 7.01392 22.5003 6.37501V6.35551C22.499 5.7166 22.3719 5.08419 22.1262 4.4944C21.8805 3.90461 21.521 3.36899 21.0684 2.91811C20.6157 2.46724 20.0786 2.10994 19.4878 1.86662C18.8971 1.6233 18.2642 1.49873 17.6253 1.50001ZM6.37525 10.125C5.63357 10.125 4.90855 9.90508 4.29187 9.49302C3.67518 9.08097 3.19453 8.4953 2.91071 7.81007C2.62688 7.12485 2.55261 6.37085 2.69731 5.64342C2.842 4.91599 3.19916 4.24781 3.7236 3.72336C4.24805 3.19891 4.91624 2.84176 5.64366 2.69706C6.37109 2.55237 7.12509 2.62663 7.81032 2.91046C8.49554 3.19429 9.08121 3.67494 9.49326 4.29162C9.90532 4.90831 10.1253 5.63333 10.1253 6.37501C10.1253 7.36957 9.73017 8.3234 9.0269 9.02666C8.32364 9.72992 7.36982 10.125 6.37525 10.125Z" fill="#BABFC7"/>
<path d="M17.645 12.7501H6.3755C5.73658 12.7489 5.10367 12.8734 4.5129 13.1167C3.92213 13.3601 3.38507 13.7174 2.93239 14.1682C2.4797 14.6191 2.12026 15.1547 1.87457 15.7445C1.62889 16.3343 1.50178 16.9667 1.5005 17.6056V17.6251C1.49922 18.264 1.62379 18.897 1.86711 19.4877C2.11043 20.0785 2.46772 20.6156 2.9186 21.0682C3.36947 21.5209 3.9051 21.8804 4.49489 22.1261C5.08468 22.3717 5.71708 22.4989 6.356 22.5001H17.6255C18.2644 22.5014 18.8973 22.3768 19.4881 22.1335C20.0789 21.8902 20.6159 21.5329 21.0686 21.082C21.5213 20.6312 21.8807 20.0955 22.1264 19.5057C22.3721 18.916 22.4992 18.2835 22.5005 17.6446V17.6251C22.5018 16.9862 22.3772 16.3533 22.1339 15.7625C21.8906 15.1718 21.5333 14.6347 21.0824 14.182C20.6315 13.7293 20.0959 13.3699 19.5061 13.1242C18.9163 12.8785 18.2839 12.7514 17.645 12.7501ZM17.6255 21.3751C16.8838 21.3751 16.1588 21.1552 15.5421 20.7431C14.9254 20.3311 14.4448 19.7454 14.1609 19.0602C13.8771 18.375 13.8029 17.621 13.9476 16.8935C14.0922 16.1661 14.4494 15.4979 14.9738 14.9735C15.4983 14.449 16.1665 14.0919 16.8939 13.9472C17.6213 13.8025 18.3753 13.8768 19.0606 14.1606C19.7458 14.4444 20.3315 14.9251 20.7435 15.5417C21.1556 16.1584 21.3755 16.8835 21.3755 17.6251C21.3755 18.6197 20.9804 19.5735 20.2771 20.2768C19.5739 20.98 18.6201 21.3751 17.6255 21.3751Z" fill="#BABFC7"/>
</svg>
